<mxfile host="Electron" modified="2023-09-15T05:25:52.043Z" agent="Mozilla/5.0 (Windows NT 10.0; Win64; x64) AppleWebKit/537.36 (KHTML, like Gecko) draw.io/21.6.8 Chrome/114.0.5735.289 Electron/25.5.0 Safari/537.36" etag="h_c3bfgZrKPMqbNYOMCQ" version="21.6.8" type="device">
  <diagram id="qHX-vIc6KNPXVEkH2NtB" name="Page-1">
    <mxGraphModel dx="2046" dy="722" grid="1" gridSize="10" guides="1" tooltips="1" connect="1" arrows="1" fold="1" page="1" pageScale="1" pageWidth="827" pageHeight="1169" math="0" shadow="0">
      <root>
        <mxCell id="0" />
        <mxCell id="1" parent="0" />
        <mxCell id="CMVmKs_iM_Mgxj2ZyM_5-5" style="edgeStyle=orthogonalEdgeStyle;rounded=0;orthogonalLoop=1;jettySize=auto;html=1;entryX=0;entryY=0.5;entryDx=0;entryDy=0;sketch=1;fontSize=12;" parent="1" source="CMVmKs_iM_Mgxj2ZyM_5-2" target="CMVmKs_iM_Mgxj2ZyM_5-6" edge="1">
          <mxGeometry relative="1" as="geometry">
            <mxPoint x="65" y="285" as="targetPoint" />
          </mxGeometry>
        </mxCell>
        <mxCell id="CMVmKs_iM_Mgxj2ZyM_5-2" value="" style="strokeWidth=2;html=1;shape=mxgraph.flowchart.start_1;whiteSpace=wrap;sketch=1;" parent="1" vertex="1">
          <mxGeometry y="270" width="30" height="30" as="geometry" />
        </mxCell>
        <mxCell id="CMVmKs_iM_Mgxj2ZyM_5-3" value="" style="strokeWidth=2;html=1;shape=mxgraph.flowchart.start_1;whiteSpace=wrap;sketch=1;fontSize=12;" parent="1" vertex="1">
          <mxGeometry x="419" y="380" width="30" height="30" as="geometry" />
        </mxCell>
        <mxCell id="CMVmKs_iM_Mgxj2ZyM_5-4" value="" style="strokeWidth=2;html=1;shape=mxgraph.flowchart.start_1;whiteSpace=wrap;fillColor=#000000;container=1;sketch=1;fontSize=12;" parent="1" vertex="1">
          <mxGeometry x="424" y="385" width="20" height="20" as="geometry" />
        </mxCell>
        <mxCell id="CMVmKs_iM_Mgxj2ZyM_5-8" style="edgeStyle=orthogonalEdgeStyle;curved=1;rounded=0;sketch=1;hachureGap=4;orthogonalLoop=1;jettySize=auto;html=1;entryX=0;entryY=0.5;entryDx=0;entryDy=0;fontFamily=Architects Daughter;fontSource=https%3A%2F%2Ffonts.googleapis.com%2Fcss%3Ffamily%3DArchitects%2BDaughter;fontSize=12;endArrow=open;startSize=14;endSize=14;sourcePerimeterSpacing=8;targetPerimeterSpacing=8;exitX=1;exitY=0.5;exitDx=0;exitDy=0;" parent="1" source="CMVmKs_iM_Mgxj2ZyM_5-6" target="Blo_cHtCFnWFtxQgtSsz-1" edge="1">
          <mxGeometry relative="1" as="geometry" />
        </mxCell>
        <mxCell id="CMVmKs_iM_Mgxj2ZyM_5-6" value="Email Received" style="rounded=1;whiteSpace=wrap;html=1;sketch=1;hachureGap=4;fontFamily=Architects Daughter;fontSource=https%3A%2F%2Ffonts.googleapis.com%2Fcss%3Ffamily%3DArchitects%2BDaughter;fontSize=12;" parent="1" vertex="1">
          <mxGeometry x="65" y="255" width="120" height="60" as="geometry" />
        </mxCell>
        <mxCell id="CMVmKs_iM_Mgxj2ZyM_5-9" value="[not relevant]" style="edgeStyle=orthogonalEdgeStyle;curved=1;rounded=0;sketch=1;hachureGap=4;orthogonalLoop=1;jettySize=auto;html=1;entryX=0.5;entryY=0;entryDx=0;entryDy=0;entryPerimeter=0;fontFamily=Architects Daughter;fontSource=https%3A%2F%2Ffonts.googleapis.com%2Fcss%3Ffamily%3DArchitects%2BDaughter;fontSize=12;endArrow=open;startSize=14;endSize=14;sourcePerimeterSpacing=8;targetPerimeterSpacing=8;exitX=0.5;exitY=1;exitDx=0;exitDy=0;" parent="1" source="CMVmKs_iM_Mgxj2ZyM_5-7" target="CMVmKs_iM_Mgxj2ZyM_5-4" edge="1">
          <mxGeometry x="0.125" y="-4" relative="1" as="geometry">
            <mxPoint as="offset" />
          </mxGeometry>
        </mxCell>
        <mxCell id="CMVmKs_iM_Mgxj2ZyM_5-11" value="[relevant]" style="edgeStyle=orthogonalEdgeStyle;curved=1;rounded=0;sketch=1;hachureGap=4;orthogonalLoop=1;jettySize=auto;html=1;entryX=0;entryY=0.5;entryDx=0;entryDy=0;fontFamily=Architects Daughter;fontSource=https%3A%2F%2Ffonts.googleapis.com%2Fcss%3Ffamily%3DArchitects%2BDaughter;fontSize=12;endArrow=open;startSize=14;endSize=14;sourcePerimeterSpacing=8;targetPerimeterSpacing=8;exitX=1;exitY=0.5;exitDx=0;exitDy=0;" parent="1" source="CMVmKs_iM_Mgxj2ZyM_5-7" target="CMVmKs_iM_Mgxj2ZyM_5-10" edge="1">
          <mxGeometry x="-0.1364" y="15" relative="1" as="geometry">
            <mxPoint as="offset" />
          </mxGeometry>
        </mxCell>
        <mxCell id="CMVmKs_iM_Mgxj2ZyM_5-7" value="" style="rhombus;whiteSpace=wrap;html=1;sketch=1;hachureGap=4;fontFamily=Architects Daughter;fontSource=https%3A%2F%2Ffonts.googleapis.com%2Fcss%3Ffamily%3DArchitects%2BDaughter;fontSize=12;" parent="1" vertex="1">
          <mxGeometry x="414" y="265" width="40" height="40" as="geometry" />
        </mxCell>
        <mxCell id="CMVmKs_iM_Mgxj2ZyM_5-13" style="edgeStyle=orthogonalEdgeStyle;curved=1;rounded=0;sketch=1;hachureGap=4;orthogonalLoop=1;jettySize=auto;html=1;entryX=0;entryY=0.5;entryDx=0;entryDy=0;fontFamily=Architects Daughter;fontSource=https%3A%2F%2Ffonts.googleapis.com%2Fcss%3Ffamily%3DArchitects%2BDaughter;fontSize=12;endArrow=open;startSize=14;endSize=14;sourcePerimeterSpacing=8;targetPerimeterSpacing=8;exitX=1;exitY=0.5;exitDx=0;exitDy=0;" parent="1" source="CMVmKs_iM_Mgxj2ZyM_5-10" target="CMVmKs_iM_Mgxj2ZyM_5-12" edge="1">
          <mxGeometry relative="1" as="geometry" />
        </mxCell>
        <mxCell id="CMVmKs_iM_Mgxj2ZyM_5-10" value="Extract Data from Email" style="rounded=1;whiteSpace=wrap;html=1;sketch=1;hachureGap=4;fontFamily=Architects Daughter;fontSource=https%3A%2F%2Ffonts.googleapis.com%2Fcss%3Ffamily%3DArchitects%2BDaughter;fontSize=12;" parent="1" vertex="1">
          <mxGeometry x="540" y="255" width="120" height="60" as="geometry" />
        </mxCell>
        <mxCell id="CMVmKs_iM_Mgxj2ZyM_5-18" style="edgeStyle=orthogonalEdgeStyle;curved=1;rounded=0;sketch=1;hachureGap=4;orthogonalLoop=1;jettySize=auto;html=1;fontFamily=Architects Daughter;fontSource=https%3A%2F%2Ffonts.googleapis.com%2Fcss%3Ffamily%3DArchitects%2BDaughter;fontSize=12;endArrow=open;startSize=14;endSize=14;sourcePerimeterSpacing=8;targetPerimeterSpacing=8;exitX=1;exitY=0.5;exitDx=0;exitDy=0;entryX=0;entryY=0.5;entryDx=0;entryDy=0;" parent="1" source="CMVmKs_iM_Mgxj2ZyM_5-12" target="CMVmKs_iM_Mgxj2ZyM_5-19" edge="1">
          <mxGeometry relative="1" as="geometry" />
        </mxCell>
        <mxCell id="CMVmKs_iM_Mgxj2ZyM_5-12" value="Find Associated Traveller Trip" style="rounded=1;whiteSpace=wrap;html=1;sketch=1;hachureGap=4;fontFamily=Architects Daughter;fontSource=https%3A%2F%2Ffonts.googleapis.com%2Fcss%3Ffamily%3DArchitects%2BDaughter;fontSize=12;" parent="1" vertex="1">
          <mxGeometry x="700" y="255" width="120" height="60" as="geometry" />
        </mxCell>
        <mxCell id="CMVmKs_iM_Mgxj2ZyM_5-39" style="edgeStyle=orthogonalEdgeStyle;rounded=0;sketch=1;hachureGap=4;orthogonalLoop=1;jettySize=auto;html=1;entryX=0.5;entryY=1;entryDx=0;entryDy=0;fontFamily=Architects Daughter;fontSource=https%3A%2F%2Ffonts.googleapis.com%2Fcss%3Ffamily%3DArchitects%2BDaughter;fontSize=12;endArrow=open;startSize=14;endSize=14;sourcePerimeterSpacing=8;targetPerimeterSpacing=8;exitX=1;exitY=0.5;exitDx=0;exitDy=0;" parent="1" source="CMVmKs_iM_Mgxj2ZyM_5-14" target="CMVmKs_iM_Mgxj2ZyM_5-24" edge="1">
          <mxGeometry relative="1" as="geometry" />
        </mxCell>
        <mxCell id="CMVmKs_iM_Mgxj2ZyM_5-14" value="Create Trip" style="rounded=1;whiteSpace=wrap;html=1;sketch=1;hachureGap=4;fontFamily=Architects Daughter;fontSource=https%3A%2F%2Ffonts.googleapis.com%2Fcss%3Ffamily%3DArchitects%2BDaughter;fontSize=12;" parent="1" vertex="1">
          <mxGeometry x="830" y="385" width="120" height="60" as="geometry" />
        </mxCell>
        <mxCell id="CMVmKs_iM_Mgxj2ZyM_5-25" value="[trip found]" style="edgeStyle=orthogonalEdgeStyle;curved=1;rounded=0;sketch=1;hachureGap=4;orthogonalLoop=1;jettySize=auto;html=1;entryX=0;entryY=0.5;entryDx=0;entryDy=0;fontFamily=Architects Daughter;fontSource=https%3A%2F%2Ffonts.googleapis.com%2Fcss%3Ffamily%3DArchitects%2BDaughter;fontSize=12;endArrow=open;startSize=14;endSize=14;sourcePerimeterSpacing=8;targetPerimeterSpacing=8;exitX=1;exitY=0.5;exitDx=0;exitDy=0;" parent="1" source="CMVmKs_iM_Mgxj2ZyM_5-19" target="CMVmKs_iM_Mgxj2ZyM_5-24" edge="1">
          <mxGeometry x="-0.1111" y="15" relative="1" as="geometry">
            <mxPoint as="offset" />
          </mxGeometry>
        </mxCell>
        <mxCell id="CMVmKs_iM_Mgxj2ZyM_5-37" style="edgeStyle=orthogonalEdgeStyle;rounded=0;sketch=1;hachureGap=4;orthogonalLoop=1;jettySize=auto;html=1;entryX=0.5;entryY=0;entryDx=0;entryDy=0;fontFamily=Architects Daughter;fontSource=https%3A%2F%2Ffonts.googleapis.com%2Fcss%3Ffamily%3DArchitects%2BDaughter;fontSize=12;endArrow=open;startSize=14;endSize=14;sourcePerimeterSpacing=8;targetPerimeterSpacing=8;exitX=0.5;exitY=1;exitDx=0;exitDy=0;" parent="1" source="CMVmKs_iM_Mgxj2ZyM_5-19" target="CMVmKs_iM_Mgxj2ZyM_5-14" edge="1">
          <mxGeometry relative="1" as="geometry" />
        </mxCell>
        <mxCell id="CMVmKs_iM_Mgxj2ZyM_5-38" value="&lt;span style=&quot;background-color: rgb(248, 249, 250);&quot;&gt;[no trip found]&lt;/span&gt;" style="edgeLabel;html=1;align=center;verticalAlign=middle;resizable=0;points=[];fontSize=12;fontFamily=Architects Daughter;" parent="CMVmKs_iM_Mgxj2ZyM_5-37" vertex="1" connectable="0">
          <mxGeometry x="-0.2917" y="1" relative="1" as="geometry">
            <mxPoint as="offset" />
          </mxGeometry>
        </mxCell>
        <mxCell id="CMVmKs_iM_Mgxj2ZyM_5-19" value="" style="rhombus;whiteSpace=wrap;html=1;sketch=1;hachureGap=4;fontFamily=Architects Daughter;fontSource=https%3A%2F%2Ffonts.googleapis.com%2Fcss%3Ffamily%3DArchitects%2BDaughter;fontSize=12;" parent="1" vertex="1">
          <mxGeometry x="870" y="265" width="40" height="40" as="geometry" />
        </mxCell>
        <mxCell id="CMVmKs_iM_Mgxj2ZyM_5-31" style="edgeStyle=orthogonalEdgeStyle;rounded=0;sketch=1;hachureGap=4;orthogonalLoop=1;jettySize=auto;html=1;entryX=0;entryY=0.5;entryDx=0;entryDy=0;entryPerimeter=0;fontFamily=Architects Daughter;fontSource=https%3A%2F%2Ffonts.googleapis.com%2Fcss%3Ffamily%3DArchitects%2BDaughter;fontSize=12;endArrow=open;startSize=14;endSize=14;sourcePerimeterSpacing=8;targetPerimeterSpacing=8;exitX=1;exitY=0.5;exitDx=0;exitDy=0;" parent="1" source="CMVmKs_iM_Mgxj2ZyM_5-24" target="CMVmKs_iM_Mgxj2ZyM_5-29" edge="1">
          <mxGeometry relative="1" as="geometry" />
        </mxCell>
        <mxCell id="CMVmKs_iM_Mgxj2ZyM_5-24" value="Update Trip itinerary" style="rounded=1;whiteSpace=wrap;html=1;sketch=1;hachureGap=4;fontFamily=Architects Daughter;fontSource=https%3A%2F%2Ffonts.googleapis.com%2Fcss%3Ffamily%3DArchitects%2BDaughter;fontSize=12;" parent="1" vertex="1">
          <mxGeometry x="1000" y="255" width="120" height="60" as="geometry" />
        </mxCell>
        <mxCell id="CMVmKs_iM_Mgxj2ZyM_5-29" value="" style="strokeWidth=2;html=1;shape=mxgraph.flowchart.start_1;whiteSpace=wrap;sketch=1;fontSize=12;" parent="1" vertex="1">
          <mxGeometry x="1170" y="270" width="30" height="30" as="geometry" />
        </mxCell>
        <mxCell id="CMVmKs_iM_Mgxj2ZyM_5-30" value="" style="strokeWidth=2;html=1;shape=mxgraph.flowchart.start_1;whiteSpace=wrap;fillColor=#000000;container=1;sketch=1;fontSize=12;" parent="1" vertex="1">
          <mxGeometry x="1175" y="275" width="20" height="20" as="geometry" />
        </mxCell>
        <mxCell id="CMVmKs_iM_Mgxj2ZyM_5-32" value="&lt;font style=&quot;font-size: 16px;&quot;&gt;&lt;span style=&quot;font-size: 26px;&quot;&gt;&lt;b&gt;Trip Update via Inbound Emails&lt;/b&gt;&lt;/span&gt;&lt;br&gt;&lt;font style=&quot;font-size: 16px;&quot;&gt;This flow shows how an inbound email to a traveller&#39;s inbox is received, interpreted, and used to create or update a trip on Road Warrior.&lt;br&gt;&lt;/font&gt;&lt;br&gt;&lt;font style=&quot;font-size: 16px;&quot;&gt;When email provider plugins are used, emails are filtered before being sent to Road Warrior.&amp;nbsp; For other email sources, the &quot;Filter Email&quot; step ensures that we only attempt to process relevant, travel-related emails from known email addresses with specific headers and content. The filtering helps to defend against DDOS attacks.&lt;/font&gt;&lt;br&gt;&lt;/font&gt;" style="text;html=1;strokeColor=default;fillColor=#CCFFFF;align=center;verticalAlign=middle;whiteSpace=wrap;rounded=0;sketch=1;hachureGap=4;fontFamily=Architects Daughter;fontSource=https%3A%2F%2Ffonts.googleapis.com%2Fcss%3Ffamily%3DArchitects%2BDaughter;fontSize=20;" parent="1" vertex="1">
          <mxGeometry x="70" y="70" width="1040" height="150" as="geometry" />
        </mxCell>
        <mxCell id="Blo_cHtCFnWFtxQgtSsz-2" style="edgeStyle=orthogonalEdgeStyle;rounded=0;sketch=1;hachureGap=4;jiggle=2;curveFitting=1;orthogonalLoop=1;jettySize=auto;html=1;entryX=0;entryY=0.5;entryDx=0;entryDy=0;fontFamily=Architects Daughter;fontSource=https%3A%2F%2Ffonts.googleapis.com%2Fcss%3Ffamily%3DArchitects%2BDaughter;fontSize=16;" edge="1" parent="1" source="Blo_cHtCFnWFtxQgtSsz-1" target="CMVmKs_iM_Mgxj2ZyM_5-7">
          <mxGeometry relative="1" as="geometry" />
        </mxCell>
        <mxCell id="Blo_cHtCFnWFtxQgtSsz-1" value="Filter Email" style="rounded=1;whiteSpace=wrap;html=1;sketch=1;hachureGap=4;fontFamily=Architects Daughter;fontSource=https%3A%2F%2Ffonts.googleapis.com%2Fcss%3Ffamily%3DArchitects%2BDaughter;fontSize=12;" vertex="1" parent="1">
          <mxGeometry x="240" y="255" width="120" height="60" as="geometry" />
        </mxCell>
      </root>
    </mxGraphModel>
  </diagram>
</mxfile>
